<?xml version="1.0" encoding="UTF-8" standalone="no"?>
<!-- Created with Inkscape (http://www.inkscape.org/) -->

<svg
   xmlns:dc="http://purl.org/dc/elements/1.1/"
   xmlns:cc="http://creativecommons.org/ns#"
   xmlns:rdf="http://www.w3.org/1999/02/22-rdf-syntax-ns#"
   xmlns:svg="http://www.w3.org/2000/svg"
   xmlns="http://www.w3.org/2000/svg"
   xmlns:sodipodi="http://sodipodi.sourceforge.net/DTD/sodipodi-0.dtd"
   xmlns:inkscape="http://www.inkscape.org/namespaces/inkscape"
   width="256"
   height="256"
   id="svg2"
   version="1.1"
   inkscape:version="0.47 r22583"
   sodipodi:docname="licenses-gpl-2.svg">
  <defs
     id="defs4">
    <inkscape:perspective
       sodipodi:type="inkscape:persp3d"
       inkscape:vp_x="0 : 128 : 1"
       inkscape:vp_y="0 : 1000 : 0"
       inkscape:vp_z="256 : 128 : 1"
       inkscape:persp3d-origin="128 : 85.333333 : 1"
       id="perspective2855" />
  </defs>
  <sodipodi:namedview
     id="base"
     pagecolor="#ffffff"
     bordercolor="#666666"
     borderopacity="1.0"
     inkscape:pageopacity="0.0"
     inkscape:pageshadow="2"
     inkscape:zoom="0.7"
     inkscape:cx="107.48806"
     inkscape:cy="136.5486"
     inkscape:document-units="px"
     inkscape:current-layer="layer1"
     showgrid="false"
     inkscape:window-width="859"
     inkscape:window-height="511"
     inkscape:window-x="0"
     inkscape:window-y="472"
     inkscape:window-maximized="0" />
  <metadata
     id="metadata7">
    <rdf:RDF>
      <cc:Work
         rdf:about="">
        <dc:format>image/svg+xml</dc:format>
        <dc:type
           rdf:resource="http://purl.org/dc/dcmitype/StillImage" />
        <dc:title></dc:title>
      </cc:Work>
    </rdf:RDF>
  </metadata>
  <g
     inkscape:label="Layer 1"
     inkscape:groupmode="layer"
     id="layer1"
     transform="translate(0,-796.36218)">
    <path
       sodipodi:type="arc"
       style="fill:#ffffff;stroke:#000000;stroke-width:14.11481189999999941;stroke-linecap:round;stroke-miterlimit:4;stroke-opacity:1;stroke-dasharray:none;fill-opacity:1"
       id="path3768"
       sodipodi:cx="138.92857"
       sodipodi:cy="128.5"
       sodipodi:rx="109.64286"
       sodipodi:ry="116.78571"
       d="m 248.57143,128.5 c 0,64.49897 -49.08878,116.78571 -109.64286,116.78571 -60.554076,0 -109.642857,-52.28674 -109.642857,-116.78571 0,-64.498968 49.088781,-116.785713 109.642857,-116.785713 60.55408,0 109.64286,52.286745 109.64286,116.785713 z"
       transform="matrix(1.0958479,0,0,1.030581,-24.235544,792.43252)" />
    <g
       id="g3734"
       transform="translate(-6.0609153,4.0406102)"
       style="stroke-width:4;stroke-miterlimit:4;stroke-dasharray:none">
      <path
         sodipodi:nodetypes="cccccccccccccccccccccccccccccccccc"
         id="path2892"
         d="m 76.189647,924.68773 c -14.263855,-0.62438 -30.826673,-10.50742 -31.54679,-44.03869 3.651982,-30.8408 28.928918,-39.85753 34.924467,-39.55675 5.870451,-1.01703 7.665937,-0.44091 13.154814,-0.51695 6.160754,-0.43545 4.961289,0.48727 10.006862,-0.93216 5.04545,-2.07674 6.28577,-3.88044 11.16812,-5.80378 -1.46897,5.00756 -2.05805,11.54493 -7.70254,14.60576 -5.02452,2.99339 -9.17248,3.40159 -14.892561,4.15858 -9.938504,2.30488 -13.448508,5.83606 -17.312097,8.97973 -5.609649,4.58086 -6.203743,10.26824 -8.107642,15.00526 -1.98869,5.9292 -1.001119,8.38624 -0.624689,11.55625 0.826637,4.04768 2.765743,7.69806 9.370334,9.68227 6.647319,0.68271 9.309513,-3.61577 12.806122,-6.87129 5.335373,-5.74308 8.918132,-10.3178 13.118463,-15.30422 7.28804,-7.64607 14.73226,-9.92329 21.86412,-9.36994 7.43671,0.97428 12.84107,4.99693 17.80363,9.68227 3.89203,-4.56944 8.19527,-8.21367 13.74315,-9.0576 4.8934,-0.45976 9.78679,0.77987 14.68019,2.81098 8.83142,6.24223 13.12207,15.07907 19.36536,22.80017 3.3498,4.27786 6.4363,5.39614 9.37033,4.68497 4.42904,-1.76489 7.53144,-5.12167 7.80861,-11.86859 0.58925,-7.6894 -1.21414,-14.38191 -5.6222,-19.98919 -3.98244,-4.90603 -8.47036,-9.81078 -13.23807,-11.96847 -2.8111,-0.78083 -7.08757,-2.00484 -12.00203,-2.47896 -6.37668,0.25499 -12.54676,-1.0597 -14.5872,-2.9573 -2.30794,-0.66504 -7.30936,-11.90897 -8.41343,-14.58038 2.29053,2.13482 5.08613,3.75242 9.6495,6.43304 4.83452,1.5734 8.15397,1.25285 14.02231,0.43895 5.99841,-1.50789 12.29094,-0.52917 17.385,0.25254 7.15806,1.43473 14.02617,6.10417 18.69417,10.46662 9.34947,7.71906 12.2454,20.31497 12.85261,32.19684 -0.15544,7.44461 -0.51115,14.68897 -3.12343,19.67686 -4.24067,7.72416 -6.08394,10.13041 -9.68268,14.0549 -4.30816,3.76334 -9.33165,5.91722 -15.30488,5.93429"
         style="fill:none;stroke:#000000;stroke-width:4;stroke-linecap:butt;stroke-linejoin:miter;stroke-miterlimit:4;stroke-opacity:1;stroke-dasharray:none" />
      <path
         sodipodi:nodetypes="ccccccccccccccc"
         id="path3666"
         d="m 138.34619,888.14498 c -6.3542,-0.94338 -10.58374,4.00211 -22.48879,2.49865 -5.77838,-0.49452 -6.9757,2.65482 -13.43082,3.12332 -7.074328,0.98871 -14.022997,8.22991 -17.178944,11.86858 -3.789409,4.91832 -6.633749,11.58892 -8.120955,18.11521 -0.363753,3.38423 -0.808728,10.43522 -4.372823,12.49324 -1.784806,1.53492 -0.895974,6.50793 -3.748134,7.49595 -1.970909,0.85226 -2.813338,2.6919 -3.123444,4.9973 -0.272045,1.25235 0.07189,2.07352 1.874067,1.87398 1.461204,-0.88314 2.82864,-1.81316 4.685167,-2.49864 2.273164,-0.91967 2.811655,1.79702 6.246889,-1.56166 1.343135,-1.29407 3.148882,-2.44937 6.559233,-3.12331 5.737709,-0.47065 9.738876,-2.34564 14.0555,-5.62196 4.113544,-3.48759 5.735014,-7.25206 8.120954,-10.93159 2.1455,-3.2863 2.78165,-6.82415 3.74813,-10.30693"
         style="fill:none;stroke:#000000;stroke-width:4;stroke-linecap:butt;stroke-linejoin:miter;stroke-miterlimit:4;stroke-opacity:1;stroke-dasharray:none" />
      <path
         sodipodi:nodetypes="cccccccccccccccc"
         id="path3668"
         d="m 156.56035,889.17215 c 6.04381,-0.0236 11.69862,1.27529 17.00628,3.75448 4.11065,2.18113 6.1215,4.52377 8.39271,6.84639 2.40305,2.73759 4.28497,5.46145 5.30067,10.15917 0.6324,2.75402 1.95947,4.81339 3.31291,6.8464 1.31266,1.59457 2.73745,3.41338 4.19635,5.30043 0.97124,1.25149 1.53164,2.50298 1.7669,3.75447 0.36315,2.79278 1.13549,2.92598 1.76688,3.97533 1.42956,0.45508 2.09196,0.27089 2.65033,0 1.63401,-0.19853 1.26208,0.89241 0.88344,1.98766 -0.71967,1.29782 -1.48176,2.58066 -5.07979,2.87108 -2.34846,0.1768 -4.79304,-0.0309 -7.28841,-0.44171 -1.36423,-0.23656 -1.79786,-1.0487 -3.09206,-1.54596 -0.81674,-0.36809 -1.83367,-0.73617 -3.09205,-1.10426 -1.84168,-0.62634 -2.45979,0.15969 -4.85894,-1.54595 -2.27317,-2.00579 -4.78945,-3.8377 -7.64592,-4.67692"
         style="fill:none;stroke:#000000;stroke-width:4;stroke-linecap:butt;stroke-linejoin:miter;stroke-miterlimit:4;stroke-opacity:1;stroke-dasharray:none" />
      <path
         sodipodi:nodetypes="ccccccccc"
         id="path3670"
         d="m 105.23768,909.38351 c 1.45104,-0.8903 2.95561,-1.65212 3.90431,-3.74798 0.43046,-0.58813 0.57116,-0.6518 1.75693,-1.48358 0.97554,-0.5808 0.25576,-1.41365 1.05417,-2.73289 0.99124,-1.66254 2.19294,-3.00941 4.21665,-3.12331 0.85111,0.0817 1.54649,-0.0313 1.98174,-0.46934 1.0639,-0.94627 3.37528,-0.86271 4.2261,-1.56082 -0.62599,1.65664 -1.15496,3.02227 -1.67885,4.37264 -1.16662,2.31574 -2.41027,3.23763 -3.74813,4.21648"
         style="fill:none;stroke:#000000;stroke-width:4;stroke-linecap:butt;stroke-linejoin:miter;stroke-miterlimit:4;stroke-opacity:1;stroke-dasharray:none" />
      <path
         sodipodi:nodetypes="ccccc"
         id="path3672"
         d="m 135.06657,897.20259 c 1.51787,1.20831 2.62643,2.12057 4.64613,0.81987 0.96628,3.40079 2.66299,6.44953 4.56804,9.48706 0.59274,0.80685 -0.11065,1.80891 0.62468,3.12331 0.43655,0.78904 0.86791,1.56251 1.40555,2.65481"
         style="fill:none;stroke:#000000;stroke-width:4;stroke-linecap:butt;stroke-linejoin:miter;stroke-miterlimit:4;stroke-opacity:1;stroke-dasharray:none" />
      <path
         id="path3674"
         d="m 122.6582,906.72984 4.41721,-2.09809 5.85282,-0.55212 2.20861,2.09809 0.44172,4.19617"
         style="fill:none;stroke:#000000;stroke-width:4;stroke-linecap:butt;stroke-linejoin:miter;stroke-miterlimit:4;stroke-opacity:1;stroke-dasharray:none" />
      <path
         sodipodi:nodetypes="cccccccccccc"
         id="path3676"
         d="m 137.8976,913.13454 c -0.49427,-0.83087 -0.87946,-1.77079 -1.76688,-2.20852 -0.77482,-0.63835 -1.49924,-0.33837 -2.17627,-0.29224 -1.01989,0.25895 -1.41478,0.51974 -2.10488,0.64916 -1.00595,0.17632 -1.42498,-0.35202 -2.50086,-0.24649 -1.75334,0.33466 -2.70354,0.89938 -3.97549,1.09086 -1.74022,0.37256 -2.4284,0.7451 -2.82545,1.11765 -0.645,0.65746 -1.04368,1.49348 -0.90354,2.21522 0.47065,1.29842 1.42687,2.11128 2.29339,3.01383 1.38223,1.21655 3.67651,1.58874 5.67769,1.94863 2.02984,0.41682 3.81315,0.9693 5.07981,0.33127 1.90674,-1.02846 2.52639,-2.15562 3.09205,-3.53363"
         style="fill:none;stroke:#000000;stroke-width:4;stroke-linecap:butt;stroke-linejoin:miter;stroke-miterlimit:4;stroke-opacity:1;stroke-dasharray:none" />
      <path
         sodipodi:nodetypes="ccccccc"
         id="path3678"
         d="m 128.02206,912.84443 c -0.39303,0.49436 -0.72952,2.05059 -0.51402,2.75244 0.25548,0.90626 0.74057,1.65953 1.87252,1.98176 1.27975,0.26601 2.46441,0.1835 3.45128,-0.62389 0.65421,-0.90261 1.00544,-1.88783 0.58745,-3.08273 -0.30159,-0.82399 -0.7659,-1.48534 -1.65221,-1.72487 -1.7192,-0.55196 -2.90611,-0.21722 -3.74502,0.69729 z"
         style="fill:none;stroke:#000000;stroke-width:4;stroke-linecap:butt;stroke-linejoin:miter;stroke-miterlimit:4;stroke-opacity:1;stroke-dasharray:none" />
      <path
         sodipodi:nodetypes="cccccccccccccc"
         id="path3680"
         d="m 162.70905,898.92041 c -1.73316,0.58829 -3.12196,1.32879 -4.06047,3.43564 -1.59088,4.34974 -1.06397,6.08486 -0.78086,9.05761 0.32197,1.96846 1.12526,3.45565 2.03024,4.84113 3.26981,4.18976 5.96455,7.43821 8.12095,11.55626 1.27575,2.64107 1.53543,4.31051 3.74814,7.33977 2.36521,2.96823 3.79869,2.67558 5.30985,2.65482 1.01579,-0.14282 1.63486,-0.51159 2.34259,-0.78083 1.04943,-0.43896 1.84325,-0.50995 2.96726,0.31233 2.15858,1.68657 2.41761,2.66939 2.81111,4.06031 0.36341,1.87423 0.0403,3.92008 -0.15617,5.93428 -0.44824,2.74745 -1.64808,3.99173 -2.81111,5.30964 -1.38099,1.43823 -2.86538,2.51775 -4.68516,3.59181 -2.50219,1.50444 -5.39241,2.73055 -8.45225,3.26053"
         style="fill:none;stroke:#000000;stroke-width:4;stroke-linecap:butt;stroke-linejoin:miter;stroke-miterlimit:4;stroke-opacity:1;stroke-dasharray:none" />
      <path
         sodipodi:nodetypes="ccccccccccccc"
         id="path3682"
         d="m 138.50236,879.39971 c -0.81431,2.53052 -0.6645,4.78558 -0.46851,7.02745 0.009,2.06747 0.56181,3.48185 1.56171,5.15347 1.09952,1.86767 3.41698,2.73831 5.46603,3.43564 3.68421,1.19536 5.23246,2.02311 5.77838,3.90414 0.0999,1.1327 -0.50231,1.79869 -1.45129,2.50812 1.37947,0.0784 2.06761,0.22484 3.30641,-1.52539 0.94951,-1.70463 -0.36262,-3.20753 -1.33301,-4.06978 -1.90413,-1.68163 -1.59592,-2.41997 -0.52211,-3.78424 1.13155,-1.27262 2.98646,-1.24357 4.52899,-2.96714 1.44286,-1.94618 2.47503,-4.03903 1.87406,-6.71512 -0.40705,-1.93231 -1.87147,-3.15974 -3.59195,-4.21647 -3.6072,-1.96668 -7.18463,-4.26078 -10.93206,-4.68497"
         style="fill:none;stroke:#000000;stroke-width:4;stroke-linecap:butt;stroke-linejoin:miter;stroke-miterlimit:4;stroke-opacity:1;stroke-dasharray:none" />
      <path
         sodipodi:nodetypes="cccc"
         id="path3684"
         d="m 140.92303,875.18324 c 2.54079,0.55494 4.41436,2.11965 5.70583,3.71563 0.91101,1.27535 1.89188,2.13503 2.00901,3.54052 -0.0541,1.73995 -0.0455,1.65625 -0.59006,3.66205"
         style="fill:none;stroke:#000000;stroke-width:4;stroke-linecap:butt;stroke-linejoin:miter;stroke-miterlimit:4;stroke-opacity:1;stroke-dasharray:none" />
      <path
         sodipodi:nodetypes="ccccccc"
         id="path3686"
         d="m 166.30102,890.3313 c -2.43398,1.77775 -2.17641,3.01721 -1.7179,4.21647 0.54192,1.20434 1.10621,2.5087 2.65493,3.43565 2.09472,1.53076 2.26617,3.50533 2.49876,5.46579 0.0298,1.04867 -0.0392,1.8998 -0.15617,2.65482 -0.13602,1.29356 -0.51559,2.26237 -1.09321,2.96714 -0.49826,0.52799 -0.89794,0.85882 -1.24938,1.09316"
         style="fill:none;stroke:#000000;stroke-width:4;stroke-linecap:butt;stroke-linejoin:miter;stroke-miterlimit:4;stroke-opacity:1;stroke-dasharray:none" />
      <path
         sodipodi:nodetypes="ccccc"
         id="path3688"
         d="m 170.58501,915.01177 c 0.11335,-1.0259 -0.0155,-2.10562 -1.21473,-3.4232 -1.02564,-0.56511 -1.84889,-1.28201 -3.42334,-1.43553 -1.36198,-0.17797 -2.72396,0.0898 -4.08593,0.49692 -1.14446,0.30783 -2.29984,0.65936 -3.58899,1.54596"
         style="fill:none;stroke:#000000;stroke-width:4;stroke-linecap:butt;stroke-linejoin:miter;stroke-miterlimit:4;stroke-opacity:1;stroke-dasharray:none" />
      <path
         sodipodi:nodetypes="cccccccc"
         id="path3690"
         d="m 163.40703,911.47816 c -0.8641,0.19441 -1.57871,0.57568 -1.8221,1.54595 -0.14121,0.90302 -0.15493,1.86276 0.11043,2.81586 0.73646,1.51593 1.35244,1.55848 2.09818,1.65639 1.30157,0.003 1.84049,-0.54479 2.59511,-1.04905 0.77511,-1.02552 0.90377,-1.74754 0.82823,-2.48458 -0.17326,-0.79542 -0.0569,-1.62133 -1.15951,-2.31894 -0.76631,-0.30295 -1.76689,-0.3065 -2.65034,-0.16563 z"
         style="fill:none;stroke:#000000;stroke-width:4;stroke-linecap:butt;stroke-linejoin:miter;stroke-miterlimit:4;stroke-opacity:1;stroke-dasharray:none" />
      <path
         sodipodi:nodetypes="ccccc"
         id="path3692"
         d="m 163.52694,920.71487 c 0.53891,0.0519 1.26416,0.1237 2.36478,-0.18181 0.64417,-0.22918 1.28835,-0.55644 1.93253,-0.99383 0.41981,-0.32383 0.57387,-0.77076 1.1043,-1.04904 0.65805,-0.28187 1.20663,-0.48163 1.65646,-0.60735"
         style="fill:none;stroke:#000000;stroke-width:4;stroke-linecap:butt;stroke-linejoin:miter;stroke-miterlimit:4;stroke-opacity:1;stroke-dasharray:none" />
      <path
         sodipodi:nodetypes="cccccc"
         id="path3694"
         d="m 168.37641,918.9871 c 0.85193,2.15855 1.76487,4.30693 2.31903,6.51511 0.23351,0.89549 0.44104,1.80397 0.77301,2.65022 0.29907,0.86041 0.51267,1.73791 0.55215,2.65022 0.0262,0.77414 -0.23223,1.38796 -0.22085,2.20852 0.0775,1.04161 0.44024,1.98816 0.66258,2.9815"
         style="fill:none;stroke:#000000;stroke-width:4;stroke-linecap:butt;stroke-linejoin:miter;stroke-miterlimit:4;stroke-opacity:1;stroke-dasharray:none" />
      <path
         sodipodi:nodetypes="ccccc"
         id="path3696"
         d="m 158.10637,904.74218 c 0.68248,-0.2817 1.18247,-0.53314 2.42947,-0.71777 0.64782,-0.116 1.41851,-0.11487 2.09818,-0.0552 1.08661,0.14375 1.51102,0.30498 1.98775,0.66255 0.29448,0.27606 0.58896,0.55213 0.88344,0.82819"
         style="fill:none;stroke:#000000;stroke-width:4;stroke-linecap:butt;stroke-linejoin:miter;stroke-miterlimit:4;stroke-opacity:1;stroke-dasharray:none" />
      <path
         sodipodi:nodetypes="cccccccccc"
         id="path3698"
         d="m 139.66449,945.71013 c -0.80854,-1.77951 -1.60129,-3.56429 -1.54603,-5.63172 -0.25029,-1.59421 0.47856,-3.07964 1.54603,-4.52745 0.96551,-1.15817 2.74118,-1.9536 4.52765,-2.1533 2.0743,-0.1731 3.95932,-0.0229 5.85281,0.49691 1.87471,0.44431 3.30324,1.33478 4.74851,2.20852 1.15558,0.87763 1.76035,1.84304 3.6442,2.76064 1.58755,0.61932 2.31441,1.06652 3.20248,1.54596 1.13155,0.80979 1.90707,1.61958 2.76077,2.42937 2.14938,1.64014 2.9877,1.47052 4.08592,1.54596"
         style="fill:none;stroke:#000000;stroke-width:4;stroke-linecap:butt;stroke-linejoin:miter;stroke-miterlimit:4;stroke-opacity:1;stroke-dasharray:none" />
      <path
         sodipodi:nodetypes="ccccc"
         id="path3700"
         d="m 140.65836,943.28076 c -0.18405,-0.77298 -0.14724,-1.61957 0.11043,-2.53979 0.30438,-0.79812 0.7661,-1.55689 1.65645,-2.20852 0.71925,-0.41522 1.60052,-0.61444 2.76077,-0.4417 0.6482,0.20478 1.26481,0.53591 1.76689,1.32511"
         style="fill:none;stroke:#000000;stroke-width:4;stroke-linecap:butt;stroke-linejoin:miter;stroke-miterlimit:4;stroke-opacity:1;stroke-dasharray:none" />
      <path
         sodipodi:nodetypes="ccccccccccc"
         id="path3702"
         d="m 147.33432,943.06431 c 0.9823,0.53927 2.13115,2.10079 2.08038,2.84657 0.25443,0.72652 -0.43515,1.36623 -1.02621,1.45563 -0.97493,0.0181 -1.40325,-0.4697 -1.98775,-0.99383 -0.64104,-0.58911 -1.01524,-1.13596 -0.71502,-2.05904 0.23695,-0.6546 0.84315,-1.01381 1.59846,-1.25373 0.82486,-0.1418 1.5843,-0.311 2.62469,-0.0591 1.52394,0.37406 2.41401,1.03862 3.22813,1.71552 0.85465,0.83859 1.67068,1.71578 2.31904,2.76065 0.47427,0.82569 1.04852,1.3797 1.76689,3.42319 0.0841,0.42885 0.14099,1.26502 0.11043,2.09809"
         style="fill:none;stroke:#000000;stroke-width:4;stroke-linecap:butt;stroke-linejoin:miter;stroke-miterlimit:4;stroke-opacity:1;stroke-dasharray:none" />
      <path
         sodipodi:nodetypes="ccccccccccccc"
         id="path3704"
         d="m 127.10179,950.29888 c 1.52094,0.35365 2.99081,0.34275 4.21665,2.03016 1.30338,1.76516 2.61419,5.14497 4.21665,7.49595 1.5029,2.36754 2.40771,4.71657 4.37283,7.18361 2.0897,2.31099 4.36552,3.83106 6.87157,4.37263 2.25735,0.40667 4.38508,0.22248 6.87158,-0.15616 2.74293,-0.38917 5.48017,-0.82386 8.12096,-2.03015 2.43392,-0.83289 4.8599,-0.41645 7.49626,-0.62466 2.32929,-0.17768 3.68803,1.04647 7.18392,0.46849 1.58438,-0.34367 3.12942,-0.5517 4.21665,-2.49865 0.49515,-1.30893 1.0683,-2.60409 -0.15617,-4.21647 -0.77007,-0.93773 -1.93697,-1.09677 -2.65493,-1.56165 -1.33946,-0.9878 -1.80947,-2.30164 -2.34258,-3.59181"
         style="fill:none;stroke:#000000;stroke-width:4;stroke-linecap:butt;stroke-linejoin:miter;stroke-miterlimit:4;stroke-opacity:1;stroke-dasharray:none" />
      <path
         sodipodi:nodetypes="cc"
         id="path3706"
         d="m 122.43734,948.5812 c -0.76753,-1.67205 0.10536,-2.52392 2.87119,-2.42937"
         style="fill:none;stroke:#000000;stroke-width:4;stroke-linecap:butt;stroke-linejoin:miter;stroke-miterlimit:4;stroke-opacity:1;stroke-dasharray:none" />
      <path
         sodipodi:nodetypes="cccc"
         id="path3708"
         d="m 113.05075,937.53862 c -1.06649,-1.61958 -1.99145,-3.23915 -2.5399,-4.85873 -0.69285,-1.84043 -1.25219,-3.68086 -1.32516,-5.52129 -0.0432,-2.46935 0.65655,-4.56728 0.99387,-6.84639"
         style="fill:none;stroke:#000000;stroke-width:4;stroke-linecap:butt;stroke-linejoin:miter;stroke-miterlimit:4;stroke-opacity:1;stroke-dasharray:none" />
      <path
         sodipodi:nodetypes="cccccccccccccccccccccc"
         id="path3710"
         d="m 97.700923,939.19501 c -0.358082,1.86385 -0.576581,3.79748 -0.11043,6.07342 0.618414,2.43674 1.070913,3.23622 0.883443,4.63788 -0.224184,0.99383 -0.665251,1.51917 -0.552152,2.98149 0.06794,1.26909 0.638066,1.63426 1.214735,1.98767 1.050211,0.59849 1.432361,1.76958 1.766891,2.98149 0.31969,1.35351 0.64271,2.70592 1.87731,3.75448 1.61871,0.88611 1.91146,2.12579 1.98775,3.42319 0.0971,2.54913 1.81293,3.37164 3.42334,4.30661 0.75091,0.58904 1.62755,0.54944 1.98775,3.09192 0.25476,2.21142 0.76578,4.1666 2.87119,4.52745 1.46422,0.25508 2.05799,0.84138 1.98776,3.4232 0.0858,1.07398 0.0389,2.04345 4.08592,1.76682 1.99302,-0.15252 2.64947,2.63218 1.21473,4.3066 -0.77563,0.77254 -1.1441,1.67151 -1.65646,2.42936 -0.56275,1.01719 -0.70533,2.08107 -0.33128,3.20235 0.40585,1.63355 2.42379,1.97749 3.75463,2.87107 1.40337,1.13633 2.94197,1.38432 4.08592,2.53979 1.45811,1.45459 2.13583,2.42794 1.87732,4.5275 -0.39009,2.3354 -1.2876,2.5554 -2.31903,2.871 -2.32735,0.7994 -2.6181,1.4538 -2.97607,2.1305 -0.81113,1.7978 0.60794,2.7749 0.98831,4.0534"
         style="fill:none;stroke:#000000;stroke-width:4;stroke-linecap:butt;stroke-linejoin:miter;stroke-miterlimit:4;stroke-opacity:1;stroke-dasharray:none" />
      <path
         sodipodi:nodetypes="ccccc"
         id="path3712"
         d="m 83.685914,943.89609 c -0.495339,3.9562 -0.596862,7.91239 -0.468517,11.86859 0.383363,6.10459 0.340725,11.031 2.186411,16.24122 1.73142,4.67482 3.838902,9.06761 6.403062,13.11791 3.628735,5.16158 8.30814,8.57212 12.49378,12.80558"
         style="fill:none;stroke:#000000;stroke-width:4;stroke-linecap:butt;stroke-linejoin:miter;stroke-miterlimit:4;stroke-opacity:1;stroke-dasharray:none" />
      <path
         sodipodi:nodetypes="cccccccccccccccccccccccccccc"
         id="path3714"
         d="m 125.77432,997.14856 c -0.40928,-1.84168 -1.16315,-3.56849 -0.70277,-5.70005 0.25805,-1.98466 2.02755,-2.32812 3.27962,-3.90413 -0.0871,2.21085 0.45253,3.983 1.40554,5.46579 1.65563,2.10836 2.05488,3.43152 2.96728,5.07538 0.7509,1.23292 2.02195,2.56985 3.27962,3.90415 0.76137,0.7287 1.51171,1.4722 2.57684,1.7959 0.002,2.097 0.75351,3.863 1.48364,5.7 0.38592,0.92 0.76569,1.54 1.05416,2.6549 1.81478,0.2983 3.43656,1.0485 4.95847,1.8349 0.74182,0.3936 1.40554,0.8258 2.18641,1.0541 0.0895,-2.5572 -1.61158,-4.4594 -1.40556,-6.7151 1.72127,1.5373 5.73134,4.219 8.74565,6.4028 -0.47221,-1.4006 -1.05058,-3.5729 -2.84345,-5.3799 2.18641,0.6898 4.05378,0.7678 6.66967,1.3977 -1.57397,-1.6 -3.40908,-3.0316 -4.60708,-4.685 -0.91882,-1.3274 -1.75837,-2.6548 -2.2645,-3.9822 -0.43204,-1.7467 0.52322,-2.61058 1.1713,-3.66992 0.0837,0.98905 -0.26711,1.97812 0.46851,2.96712 0.76358,1.0615 1.08042,1.0807 1.56173,1.4836 -0.0644,-0.8498 0.14269,-1.5186 0.70277,-1.9521 0.77595,-0.5409 1.59437,-1.01812 2.57684,-1.2493 0.6569,-0.8589 1.5824,-1.71782 2.65493,-2.57673 0.82935,-1.04475 1.60833,-1.90553 1.52267,-3.66988 -0.21118,-1.23902 -0.32635,-2.39483 -1.21033,-3.82606 -0.68842,-0.8625 -1.21127,-1.76639 -1.48364,-2.7329 -0.30432,-1.17345 0.2424,-1.9687 0.85896,-2.73289 0.83192,-1.00157 1.11069,-1.72657 1.32745,-2.42057"
         style="fill:none;stroke:#000000;stroke-width:4;stroke-linecap:butt;stroke-linejoin:miter;stroke-miterlimit:4;stroke-opacity:1;stroke-dasharray:none" />
      <path
         sodipodi:nodetypes="ccccccccccc"
         id="path3716"
         d="m 145.53011,983.17174 c 1.54589,-0.17541 3.44219,-0.71291 4.529,-0.39041 1.42231,0.45424 2.07697,0.38734 4.37282,0.0781 1.16904,-0.25396 2.0373,-0.72877 3.59196,-1.09316 2.05135,-0.29101 3.37362,-0.43649 4.99751,-0.23424 1.54822,0.18981 3.57057,0.0108 5.77837,-0.31234 0.92702,-0.16492 1.21295,-0.36991 3.20153,-0.46849 0.93554,-0.10041 1.76775,-0.54524 2.2645,-2.10823 0.34779,-1.15619 0.64072,-2.40013 0.62469,-4.1384 -0.0694,-1.05717 0.0753,-1.96148 -0.46852,-3.35755 -0.31604,-0.95547 -0.53235,-1.41231 -0.78086,-2.03015"
         style="fill:none;stroke:#000000;stroke-width:4;stroke-linecap:butt;stroke-linejoin:miter;stroke-miterlimit:4;stroke-opacity:1;stroke-dasharray:none" />
      <path
         id="path3718"
         d="m 137.09681,1002.7705 -2.8111,5.1535 -2.34258,3.4356 1.0932,3.5918"
         style="fill:none;stroke:#000000;stroke-width:4;stroke-linecap:butt;stroke-linejoin:miter;stroke-miterlimit:4;stroke-opacity:1;stroke-dasharray:none" />
      <path
         sodipodi:nodetypes="ccc"
         id="path3720"
         d="m 140.74398,1010.7428 c -0.21847,1.5646 -0.38364,3.8711 0.41331,5.1456 1.57435,1.7705 2.7622,3.0108 4.06047,3.5918"
         style="fill:none;stroke:#000000;stroke-width:4;stroke-linecap:butt;stroke-linejoin:miter;stroke-miterlimit:4;stroke-opacity:1;stroke-dasharray:none" />
      <path
         sodipodi:nodetypes="ccc"
         id="path3722"
         d="m 158.92304,1010.2933 c 1.41578,1.0829 3.81159,2.2901 5.81625,2.7842 1.89129,-0.5727 2.53001,-1.1453 2.96728,-1.7179"
         style="fill:none;stroke:#000000;stroke-width:4;stroke-linecap:butt;stroke-linejoin:miter;stroke-miterlimit:4;stroke-opacity:1;stroke-dasharray:none" />
      <path
         sodipodi:nodetypes="cc"
         id="path3724"
         d="m 152.47442,986.01553 c 3.36073,-0.5268 5.58073,-1.90044 7.84056,-0.33128"
         style="fill:none;stroke:#000000;stroke-width:4;stroke-linecap:butt;stroke-linejoin:miter;stroke-miterlimit:4;stroke-opacity:1;stroke-dasharray:none" />
      <path
         sodipodi:nodetypes="cc"
         id="path3732"
         d="m 144.98446,997.94046 c -1.21858,4.49894 0.87815,9.86734 3.59656,11.75824"
         style="fill:none;stroke:#000000;stroke-width:4;stroke-linecap:butt;stroke-linejoin:miter;stroke-miterlimit:4;stroke-opacity:1;stroke-dasharray:none" />
    </g>
  </g>
</svg>
